<svg xmlns="http://www.w3.org/2000/svg" xmlns:xlink="http://www.w3.org/1999/xlink" width="238" zoomAndPan="magnify" viewBox="0 0 178.5 41.25" height="55" preserveAspectRatio="xMidYMid meet" version="1.2"><defs><clipPath id="59ebf1cfbb"><path d="M 1.347656 5.125 L 30.8125 5.125 L 30.8125 35.324219 L 1.347656 35.324219 Z M 1.347656 5.125 "/></clipPath></defs><g id="338a381cca"><g clip-rule="nonzero" clip-path="url(#59ebf1cfbb)"><path style=" stroke:none;fill-rule:nonzero;fill:#ffffff;fill-opacity:1;" d="M 16.082031 5.125 C 7.949219 5.125 1.355469 11.71875 1.355469 19.851562 L 1.355469 32.542969 C 1.355469 33.984375 2.523438 35.152344 3.964844 35.152344 C 9.992188 35.152344 14.878906 30.265625 14.878906 24.238281 L 14.878906 23.558594 L 13.738281 24.050781 C 13.289062 24.242188 12.792969 23.914062 12.792969 23.425781 L 12.792969 23.25 C 12.792969 22.625 14.582031 21.5 14.582031 20.960938 L 14.582031 16.964844 C 14.582031 16.964844 8.210938 19.628906 7.546875 19.378906 C 6.878906 19.128906 6.628906 17.878906 7.878906 17.128906 C 9.128906 16.378906 14.582031 12.382812 14.582031 12.382812 C 14.289062 7.304688 16.082031 7.472656 16.082031 7.472656 C 16.082031 7.472656 17.871094 7.304688 17.578125 12.382812 C 17.578125 12.382812 23.03125 16.378906 24.28125 17.128906 C 25.53125 17.878906 25.28125 19.128906 24.613281 19.378906 C 23.949219 19.628906 17.578125 16.964844 17.578125 16.964844 L 17.578125 20.960938 C 17.578125 21.5 19.371094 22.625 19.371094 23.25 L 19.371094 23.425781 C 19.371094 23.914062 18.871094 24.242188 18.421875 24.050781 L 17.28125 23.558594 L 17.28125 24.238281 C 17.28125 30.265625 22.167969 35.152344 28.199219 35.152344 C 29.636719 35.152344 30.808594 33.984375 30.808594 32.542969 L 30.808594 19.851562 C 30.808594 11.71875 24.214844 5.125 16.082031 5.125 Z M 16.082031 5.125 "/></g><path style="fill:none;stroke-width:2;stroke-linecap:round;stroke-linejoin:miter;stroke:#ffffff;stroke-opacity:1;stroke-miterlimit:4;" d="M 1.00073 1.0004 L 37.984065 1.0004 " transform="matrix(0.00000000128562,-0.736607,0.736607,0.00000000128562,36.50138,34.59652)"/><g style="fill:#ffffff;fill-opacity:1;"><g transform="translate(43.136335, 27.610262)"><path style="stroke:none" d="M 9.25 -15.71875 L 14.953125 -0.546875 C 14.972656 -0.515625 14.988281 -0.476562 15 -0.4375 C 15.007812 -0.40625 15.015625 -0.378906 15.015625 -0.359375 C 15.015625 -0.253906 14.972656 -0.164062 14.890625 -0.09375 C 14.816406 -0.03125 14.710938 0 14.578125 0 L 11.765625 0 C 11.640625 0 11.53125 -0.0234375 11.4375 -0.078125 C 11.351562 -0.140625 11.289062 -0.238281 11.25 -0.375 L 10.3125 -3.25 L 9.4375 -3.25 C 8.488281 -3.25 7.703125 -3.429688 7.078125 -3.796875 C 6.453125 -4.160156 6.003906 -4.644531 5.734375 -5.25 C 5.359375 -4.019531 4.882812 -3.007812 4.3125 -2.21875 C 3.738281 -1.4375 3.078125 -0.832031 2.328125 -0.40625 C 1.578125 0.0195312 0.753906 0.3125 -0.140625 0.46875 L 5.96875 -15.71875 C 6.070312 -15.96875 6.253906 -16.09375 6.515625 -16.09375 L 8.71875 -16.09375 C 8.976562 -16.09375 9.15625 -15.96875 9.25 -15.71875 Z M 7.625 -11.40625 L 6.03125 -6.15625 L 9.34375 -6.15625 Z M 7.625 -11.40625 "/></g></g><g style="fill:#ffffff;fill-opacity:1;"><g transform="translate(56.458025, 27.610262)"><path style="stroke:none" d="M 8.265625 -10.8125 C 9.035156 -10.8125 9.738281 -10.675781 10.375 -10.40625 C 11.007812 -10.132812 11.554688 -9.75 12.015625 -9.25 C 12.484375 -8.757812 12.84375 -8.171875 13.09375 -7.484375 C 13.34375 -6.804688 13.46875 -6.054688 13.46875 -5.234375 C 13.46875 -4.398438 13.34375 -3.640625 13.09375 -2.953125 C 12.84375 -2.265625 12.484375 -1.671875 12.015625 -1.171875 C 11.554688 -0.679688 11.007812 -0.300781 10.375 -0.03125 C 9.738281 0.238281 9.035156 0.375 8.265625 0.375 C 7.398438 0.375 6.617188 0.203125 5.921875 -0.140625 C 5.222656 -0.484375 4.640625 -0.960938 4.171875 -1.578125 C 3.597656 -0.367188 2.585938 0.234375 1.140625 0.234375 L 1.140625 -17.75 C 2.285156 -17.519531 3.160156 -17.019531 3.765625 -16.25 C 4.378906 -15.476562 4.6875 -14.476562 4.6875 -13.25 L 4.6875 -9.4375 C 5.132812 -9.882812 5.660156 -10.222656 6.265625 -10.453125 C 6.878906 -10.691406 7.546875 -10.8125 8.265625 -10.8125 Z M 7.171875 -2.46875 C 7.648438 -2.46875 8.078125 -2.582031 8.453125 -2.8125 C 8.828125 -3.039062 9.117188 -3.363281 9.328125 -3.78125 C 9.546875 -4.195312 9.65625 -4.671875 9.65625 -5.203125 C 9.65625 -5.742188 9.546875 -6.21875 9.328125 -6.625 C 9.117188 -7.039062 8.828125 -7.363281 8.453125 -7.59375 C 8.078125 -7.832031 7.648438 -7.953125 7.171875 -7.953125 C 6.691406 -7.953125 6.265625 -7.832031 5.890625 -7.59375 C 5.515625 -7.363281 5.21875 -7.039062 5 -6.625 C 4.789062 -6.21875 4.6875 -5.742188 4.6875 -5.203125 C 4.6875 -4.671875 4.789062 -4.195312 5 -3.78125 C 5.21875 -3.363281 5.515625 -3.039062 5.890625 -2.8125 C 6.265625 -2.582031 6.691406 -2.46875 7.171875 -2.46875 Z M 7.171875 -2.46875 "/></g></g><g style="fill:#ffffff;fill-opacity:1;"><g transform="translate(68.833184, 27.610262)"><path style="stroke:none" d="M 8.09375 -10.578125 C 8.226562 -10.546875 8.320312 -10.476562 8.375 -10.375 C 8.4375 -10.28125 8.46875 -10.164062 8.46875 -10.03125 L 8.46875 -7.6875 C 8.46875 -7.519531 8.414062 -7.40625 8.3125 -7.34375 C 8.21875 -7.28125 8.09375 -7.269531 7.9375 -7.3125 C 7.53125 -7.40625 7.164062 -7.453125 6.84375 -7.453125 C 5.550781 -7.453125 4.832031 -6.71875 4.6875 -5.25 L 4.6875 -0.46875 C 4.6875 -0.15625 4.53125 0 4.21875 0 L 1.609375 0 C 1.296875 0 1.140625 -0.15625 1.140625 -0.46875 L 1.140625 -10.671875 C 2.566406 -10.367188 3.566406 -9.675781 4.140625 -8.59375 C 4.515625 -9.351562 4.976562 -9.890625 5.53125 -10.203125 C 6.09375 -10.515625 6.6875 -10.671875 7.3125 -10.671875 C 7.445312 -10.671875 7.582031 -10.660156 7.71875 -10.640625 C 7.851562 -10.617188 7.976562 -10.597656 8.09375 -10.578125 Z M 8.09375 -10.578125 "/></g></g><g style="fill:#ffffff;fill-opacity:1;"><g transform="translate(75.931379, 27.610262)"><path style="stroke:none" d="M 6.625 0.375 C 5.695312 0.375 4.863281 0.238281 4.125 -0.03125 C 3.382812 -0.300781 2.753906 -0.6875 2.234375 -1.1875 C 1.722656 -1.6875 1.332031 -2.273438 1.0625 -2.953125 C 0.789062 -3.640625 0.65625 -4.390625 0.65625 -5.203125 C 0.65625 -6.023438 0.789062 -6.773438 1.0625 -7.453125 C 1.34375 -8.140625 1.738281 -8.734375 2.25 -9.234375 C 2.769531 -9.734375 3.394531 -10.117188 4.125 -10.390625 C 4.863281 -10.671875 5.695312 -10.8125 6.625 -10.8125 C 7.550781 -10.8125 8.378906 -10.671875 9.109375 -10.390625 C 9.847656 -10.117188 10.472656 -9.734375 10.984375 -9.234375 C 11.492188 -8.734375 11.882812 -8.140625 12.15625 -7.453125 C 12.425781 -6.773438 12.5625 -6.023438 12.5625 -5.203125 C 12.5625 -4.109375 12.328125 -3.140625 11.859375 -2.296875 C 11.390625 -1.460938 10.707031 -0.804688 9.8125 -0.328125 C 8.925781 0.140625 7.863281 0.375 6.625 0.375 Z M 6.625 -2.390625 C 7.144531 -2.390625 7.582031 -2.507812 7.9375 -2.75 C 8.300781 -3 8.578125 -3.332031 8.765625 -3.75 C 8.953125 -4.175781 9.046875 -4.65625 9.046875 -5.1875 C 9.046875 -5.71875 8.953125 -6.203125 8.765625 -6.640625 C 8.578125 -7.078125 8.300781 -7.421875 7.9375 -7.671875 C 7.582031 -7.921875 7.144531 -8.046875 6.625 -8.046875 C 6.101562 -8.046875 5.660156 -7.914062 5.296875 -7.65625 C 4.941406 -7.40625 4.664062 -7.0625 4.46875 -6.625 C 4.28125 -6.195312 4.1875 -5.71875 4.1875 -5.1875 C 4.1875 -4.664062 4.28125 -4.191406 4.46875 -3.765625 C 4.65625 -3.347656 4.925781 -3.015625 5.28125 -2.765625 C 5.644531 -2.515625 6.09375 -2.390625 6.625 -2.390625 Z M 6.625 -2.390625 "/></g></g><g style="fill:#ffffff;fill-opacity:1;"><g transform="translate(87.407325, 27.610262)"><path style="stroke:none" d="M 10.078125 -8.75 C 10.648438 -9.894531 11.628906 -10.535156 13.015625 -10.671875 L 13.015625 0.234375 C 11.628906 0.0976562 10.648438 -0.546875 10.078125 -1.703125 C 9.617188 -1.054688 9.03125 -0.546875 8.3125 -0.171875 C 7.59375 0.191406 6.785156 0.375 5.890625 0.375 C 5.128906 0.375 4.425781 0.238281 3.78125 -0.03125 C 3.144531 -0.300781 2.59375 -0.679688 2.125 -1.171875 C 1.664062 -1.671875 1.3125 -2.265625 1.0625 -2.953125 C 0.8125 -3.640625 0.6875 -4.398438 0.6875 -5.234375 C 0.6875 -6.054688 0.8125 -6.804688 1.0625 -7.484375 C 1.3125 -8.171875 1.664062 -8.757812 2.125 -9.25 C 2.59375 -9.75 3.144531 -10.132812 3.78125 -10.40625 C 4.425781 -10.675781 5.128906 -10.8125 5.890625 -10.8125 C 6.785156 -10.8125 7.59375 -10.628906 8.3125 -10.265625 C 9.03125 -9.898438 9.617188 -9.394531 10.078125 -8.75 Z M 6.984375 -2.46875 C 7.460938 -2.46875 7.890625 -2.582031 8.265625 -2.8125 C 8.640625 -3.039062 8.929688 -3.363281 9.140625 -3.78125 C 9.359375 -4.195312 9.46875 -4.671875 9.46875 -5.203125 C 9.46875 -5.742188 9.359375 -6.21875 9.140625 -6.625 C 8.929688 -7.039062 8.640625 -7.363281 8.265625 -7.59375 C 7.890625 -7.832031 7.460938 -7.953125 6.984375 -7.953125 C 6.503906 -7.953125 6.078125 -7.832031 5.703125 -7.59375 C 5.328125 -7.363281 5.03125 -7.039062 4.8125 -6.625 C 4.601562 -6.21875 4.5 -5.742188 4.5 -5.203125 C 4.5 -4.671875 4.601562 -4.195312 4.8125 -3.78125 C 5.03125 -3.363281 5.328125 -3.039062 5.703125 -2.8125 C 6.078125 -2.582031 6.503906 -2.46875 6.984375 -2.46875 Z M 6.984375 -2.46875 "/></g></g><g style="fill:#ffffff;fill-opacity:1;"><g transform="translate(99.806144, 27.610262)"><path style="stroke:none" d="M 9.46875 -9.4375 L 9.46875 -17.75 C 10.625 -17.519531 11.503906 -17.019531 12.109375 -16.25 C 12.710938 -15.476562 13.015625 -14.476562 13.015625 -13.25 L 13.015625 0.234375 C 11.566406 0.234375 10.554688 -0.367188 9.984375 -1.578125 C 9.523438 -0.960938 8.945312 -0.484375 8.25 -0.140625 C 7.550781 0.203125 6.765625 0.375 5.890625 0.375 C 5.128906 0.375 4.425781 0.238281 3.78125 -0.03125 C 3.144531 -0.300781 2.59375 -0.679688 2.125 -1.171875 C 1.664062 -1.671875 1.3125 -2.265625 1.0625 -2.953125 C 0.8125 -3.640625 0.6875 -4.398438 0.6875 -5.234375 C 0.6875 -6.054688 0.8125 -6.804688 1.0625 -7.484375 C 1.3125 -8.171875 1.664062 -8.757812 2.125 -9.25 C 2.59375 -9.75 3.144531 -10.132812 3.78125 -10.40625 C 4.425781 -10.675781 5.128906 -10.8125 5.890625 -10.8125 C 6.617188 -10.8125 7.285156 -10.691406 7.890625 -10.453125 C 8.492188 -10.222656 9.019531 -9.882812 9.46875 -9.4375 Z M 6.984375 -2.46875 C 7.460938 -2.46875 7.890625 -2.582031 8.265625 -2.8125 C 8.640625 -3.039062 8.929688 -3.363281 9.140625 -3.78125 C 9.359375 -4.195312 9.46875 -4.671875 9.46875 -5.203125 C 9.46875 -5.742188 9.359375 -6.21875 9.140625 -6.625 C 8.929688 -7.039062 8.640625 -7.363281 8.265625 -7.59375 C 7.890625 -7.832031 7.460938 -7.953125 6.984375 -7.953125 C 6.503906 -7.953125 6.078125 -7.832031 5.703125 -7.59375 C 5.328125 -7.363281 5.03125 -7.039062 4.8125 -6.625 C 4.601562 -6.21875 4.5 -5.742188 4.5 -5.203125 C 4.5 -4.671875 4.601562 -4.195312 4.8125 -3.78125 C 5.03125 -3.363281 5.328125 -3.039062 5.703125 -2.8125 C 6.078125 -2.582031 6.503906 -2.46875 6.984375 -2.46875 Z M 6.984375 -2.46875 "/></g></g><g style="fill:#ffffff;fill-opacity:1;"><g transform="translate(112.204962, 27.610262)"><path style="stroke:none" d="M 2.75 -12.5 C 2.3125 -12.5 1.894531 -12.566406 1.5 -12.703125 C 1.101562 -12.847656 0.773438 -13.0625 0.515625 -13.34375 C 0.265625 -13.632812 0.140625 -13.992188 0.140625 -14.421875 C 0.140625 -14.835938 0.265625 -15.1875 0.515625 -15.46875 C 0.773438 -15.75 1.101562 -15.960938 1.5 -16.109375 C 1.894531 -16.253906 2.3125 -16.328125 2.75 -16.328125 C 3.175781 -16.328125 3.585938 -16.253906 3.984375 -16.109375 C 4.378906 -15.960938 4.703125 -15.75 4.953125 -15.46875 C 5.210938 -15.1875 5.34375 -14.835938 5.34375 -14.421875 C 5.34375 -13.992188 5.210938 -13.632812 4.953125 -13.34375 C 4.703125 -13.0625 4.378906 -12.847656 3.984375 -12.703125 C 3.585938 -12.566406 3.175781 -12.5 2.75 -12.5 Z M 4.21875 0 L 1.609375 0 C 1.296875 0 1.140625 -0.15625 1.140625 -0.46875 L 1.140625 -10.671875 C 2.285156 -10.441406 3.160156 -9.941406 3.765625 -9.171875 C 4.378906 -8.398438 4.6875 -7.398438 4.6875 -6.171875 L 4.6875 -0.46875 C 4.6875 -0.15625 4.53125 0 4.21875 0 Z M 4.21875 0 "/></g></g><g style="fill:#ffffff;fill-opacity:1;"><g transform="translate(116.108589, 27.610262)"><path style="stroke:none" d="M 8.265625 -10.8125 C 9.035156 -10.8125 9.738281 -10.675781 10.375 -10.40625 C 11.007812 -10.132812 11.554688 -9.75 12.015625 -9.25 C 12.484375 -8.757812 12.84375 -8.171875 13.09375 -7.484375 C 13.34375 -6.804688 13.46875 -6.054688 13.46875 -5.234375 C 13.46875 -4.398438 13.34375 -3.640625 13.09375 -2.953125 C 12.84375 -2.265625 12.484375 -1.671875 12.015625 -1.171875 C 11.554688 -0.679688 11.007812 -0.300781 10.375 -0.03125 C 9.738281 0.238281 9.035156 0.375 8.265625 0.375 C 7.546875 0.375 6.878906 0.253906 6.265625 0.015625 C 5.660156 -0.222656 5.132812 -0.5625 4.6875 -1 L 4.6875 5.921875 C 3.539062 5.796875 2.660156 5.316406 2.046875 4.484375 C 1.441406 3.660156 1.140625 2.484375 1.140625 0.953125 L 1.140625 -10.671875 C 2.515625 -10.390625 3.492188 -9.738281 4.078125 -8.71875 C 4.535156 -9.375 5.117188 -9.882812 5.828125 -10.25 C 6.546875 -10.625 7.359375 -10.8125 8.265625 -10.8125 Z M 7.171875 -2.46875 C 7.648438 -2.46875 8.078125 -2.582031 8.453125 -2.8125 C 8.828125 -3.039062 9.117188 -3.363281 9.328125 -3.78125 C 9.546875 -4.195312 9.65625 -4.671875 9.65625 -5.203125 C 9.65625 -5.742188 9.546875 -6.21875 9.328125 -6.625 C 9.117188 -7.039062 8.828125 -7.363281 8.453125 -7.59375 C 8.078125 -7.832031 7.648438 -7.953125 7.171875 -7.953125 C 6.691406 -7.953125 6.265625 -7.832031 5.890625 -7.59375 C 5.515625 -7.363281 5.21875 -7.039062 5 -6.625 C 4.789062 -6.21875 4.6875 -5.742188 4.6875 -5.203125 C 4.6875 -4.671875 4.789062 -4.195312 5 -3.78125 C 5.21875 -3.363281 5.515625 -3.039062 5.890625 -2.8125 C 6.265625 -2.582031 6.691406 -2.46875 7.171875 -2.46875 Z M 7.171875 -2.46875 "/></g></g><g style="fill:#ffffff;fill-opacity:1;"><g transform="translate(128.483748, 27.610262)"><path style="stroke:none" d="M 6.71875 -10.8125 C 7.519531 -10.8125 8.265625 -10.691406 8.953125 -10.453125 C 9.648438 -10.222656 10.265625 -9.878906 10.796875 -9.421875 C 11.328125 -8.972656 11.742188 -8.414062 12.046875 -7.75 C 12.347656 -7.082031 12.5 -6.3125 12.5 -5.4375 L 12.5 -5.015625 C 12.5 -4.703125 12.34375 -4.546875 12.03125 -4.546875 L 4.40625 -4.546875 C 4.445312 -3.828125 4.664062 -3.25 5.0625 -2.8125 C 5.457031 -2.375 5.988281 -2.15625 6.65625 -2.15625 C 7.175781 -2.15625 7.601562 -2.257812 7.9375 -2.46875 C 8.28125 -2.6875 8.519531 -2.953125 8.65625 -3.265625 C 8.726562 -3.398438 8.800781 -3.5 8.875 -3.5625 C 8.957031 -3.632812 9.0625 -3.671875 9.1875 -3.671875 L 11.8125 -3.671875 C 11.976562 -3.671875 12.101562 -3.617188 12.1875 -3.515625 C 12.269531 -3.421875 12.28125 -3.289062 12.21875 -3.125 C 11.9375 -2.332031 11.53125 -1.675781 11 -1.15625 C 10.46875 -0.644531 9.835938 -0.257812 9.109375 0 C 8.390625 0.25 7.59375 0.375 6.71875 0.375 C 5.820312 0.375 5 0.25 4.25 0 C 3.507812 -0.257812 2.867188 -0.628906 2.328125 -1.109375 C 1.796875 -1.597656 1.378906 -2.1875 1.078125 -2.875 C 0.785156 -3.570312 0.640625 -4.347656 0.640625 -5.203125 C 0.640625 -6.054688 0.789062 -6.828125 1.09375 -7.515625 C 1.394531 -8.210938 1.816406 -8.804688 2.359375 -9.296875 C 2.910156 -9.785156 3.554688 -10.160156 4.296875 -10.421875 C 5.035156 -10.679688 5.84375 -10.8125 6.71875 -10.8125 Z M 4.453125 -6.46875 L 8.734375 -6.46875 C 8.703125 -7.03125 8.492188 -7.492188 8.109375 -7.859375 C 7.734375 -8.222656 7.234375 -8.40625 6.609375 -8.40625 C 5.953125 -8.40625 5.453125 -8.222656 5.109375 -7.859375 C 4.773438 -7.492188 4.554688 -7.03125 4.453125 -6.46875 Z M 4.453125 -6.46875 "/></g></g><g style="fill:#ffffff;fill-opacity:1;"><g transform="translate(139.888693, 27.610262)"><path style="stroke:none" d="M 9.46875 -9.4375 L 9.46875 -17.75 C 10.625 -17.519531 11.503906 -17.019531 12.109375 -16.25 C 12.710938 -15.476562 13.015625 -14.476562 13.015625 -13.25 L 13.015625 0.234375 C 11.566406 0.234375 10.554688 -0.367188 9.984375 -1.578125 C 9.523438 -0.960938 8.945312 -0.484375 8.25 -0.140625 C 7.550781 0.203125 6.765625 0.375 5.890625 0.375 C 5.128906 0.375 4.425781 0.238281 3.78125 -0.03125 C 3.144531 -0.300781 2.59375 -0.679688 2.125 -1.171875 C 1.664062 -1.671875 1.3125 -2.265625 1.0625 -2.953125 C 0.8125 -3.640625 0.6875 -4.398438 0.6875 -5.234375 C 0.6875 -6.054688 0.8125 -6.804688 1.0625 -7.484375 C 1.3125 -8.171875 1.664062 -8.757812 2.125 -9.25 C 2.59375 -9.75 3.144531 -10.132812 3.78125 -10.40625 C 4.425781 -10.675781 5.128906 -10.8125 5.890625 -10.8125 C 6.617188 -10.8125 7.285156 -10.691406 7.890625 -10.453125 C 8.492188 -10.222656 9.019531 -9.882812 9.46875 -9.4375 Z M 6.984375 -2.46875 C 7.460938 -2.46875 7.890625 -2.582031 8.265625 -2.8125 C 8.640625 -3.039062 8.929688 -3.363281 9.140625 -3.78125 C 9.359375 -4.195312 9.46875 -4.671875 9.46875 -5.203125 C 9.46875 -5.742188 9.359375 -6.21875 9.140625 -6.625 C 8.929688 -7.039062 8.640625 -7.363281 8.265625 -7.59375 C 7.890625 -7.832031 7.460938 -7.953125 6.984375 -7.953125 C 6.503906 -7.953125 6.078125 -7.832031 5.703125 -7.59375 C 5.328125 -7.363281 5.03125 -7.039062 4.8125 -6.625 C 4.601562 -6.21875 4.5 -5.742188 4.5 -5.203125 C 4.5 -4.671875 4.601562 -4.195312 4.8125 -3.78125 C 5.03125 -3.363281 5.328125 -3.039062 5.703125 -2.8125 C 6.078125 -2.582031 6.503906 -2.46875 6.984375 -2.46875 Z M 6.984375 -2.46875 "/></g></g><g style="fill:#ffffff;fill-opacity:1;"><g transform="translate(152.287511, 27.610262)"><path style="stroke:none" d="M 2.75 -12.5 C 2.3125 -12.5 1.894531 -12.566406 1.5 -12.703125 C 1.101562 -12.847656 0.773438 -13.0625 0.515625 -13.34375 C 0.265625 -13.632812 0.140625 -13.992188 0.140625 -14.421875 C 0.140625 -14.835938 0.265625 -15.1875 0.515625 -15.46875 C 0.773438 -15.75 1.101562 -15.960938 1.5 -16.109375 C 1.894531 -16.253906 2.3125 -16.328125 2.75 -16.328125 C 3.175781 -16.328125 3.585938 -16.253906 3.984375 -16.109375 C 4.378906 -15.960938 4.703125 -15.75 4.953125 -15.46875 C 5.210938 -15.1875 5.34375 -14.835938 5.34375 -14.421875 C 5.34375 -13.992188 5.210938 -13.632812 4.953125 -13.34375 C 4.703125 -13.0625 4.378906 -12.847656 3.984375 -12.703125 C 3.585938 -12.566406 3.175781 -12.5 2.75 -12.5 Z M 4.21875 0 L 1.609375 0 C 1.296875 0 1.140625 -0.15625 1.140625 -0.46875 L 1.140625 -10.671875 C 2.285156 -10.441406 3.160156 -9.941406 3.765625 -9.171875 C 4.378906 -8.398438 4.6875 -7.398438 4.6875 -6.171875 L 4.6875 -0.46875 C 4.6875 -0.15625 4.53125 0 4.21875 0 Z M 4.21875 0 "/></g></g><g style="fill:#ffffff;fill-opacity:1;"><g transform="translate(156.191138, 27.610262)"><path style="stroke:none" d="M 10.078125 -8.75 C 10.648438 -9.894531 11.628906 -10.535156 13.015625 -10.671875 L 13.015625 0.234375 C 11.628906 0.0976562 10.648438 -0.546875 10.078125 -1.703125 C 9.617188 -1.054688 9.03125 -0.546875 8.3125 -0.171875 C 7.59375 0.191406 6.785156 0.375 5.890625 0.375 C 5.128906 0.375 4.425781 0.238281 3.78125 -0.03125 C 3.144531 -0.300781 2.59375 -0.679688 2.125 -1.171875 C 1.664062 -1.671875 1.3125 -2.265625 1.0625 -2.953125 C 0.8125 -3.640625 0.6875 -4.398438 0.6875 -5.234375 C 0.6875 -6.054688 0.8125 -6.804688 1.0625 -7.484375 C 1.3125 -8.171875 1.664062 -8.757812 2.125 -9.25 C 2.59375 -9.75 3.144531 -10.132812 3.78125 -10.40625 C 4.425781 -10.675781 5.128906 -10.8125 5.890625 -10.8125 C 6.785156 -10.8125 7.59375 -10.628906 8.3125 -10.265625 C 9.03125 -9.898438 9.617188 -9.394531 10.078125 -8.75 Z M 6.984375 -2.46875 C 7.460938 -2.46875 7.890625 -2.582031 8.265625 -2.8125 C 8.640625 -3.039062 8.929688 -3.363281 9.140625 -3.78125 C 9.359375 -4.195312 9.46875 -4.671875 9.46875 -5.203125 C 9.46875 -5.742188 9.359375 -6.21875 9.140625 -6.625 C 8.929688 -7.039062 8.640625 -7.363281 8.265625 -7.59375 C 7.890625 -7.832031 7.460938 -7.953125 6.984375 -7.953125 C 6.503906 -7.953125 6.078125 -7.832031 5.703125 -7.59375 C 5.328125 -7.363281 5.03125 -7.039062 4.8125 -6.625 C 4.601562 -6.21875 4.5 -5.742188 4.5 -5.203125 C 4.5 -4.671875 4.601562 -4.195312 4.8125 -3.78125 C 5.03125 -3.363281 5.328125 -3.039062 5.703125 -2.8125 C 6.078125 -2.582031 6.503906 -2.46875 6.984375 -2.46875 Z M 6.984375 -2.46875 "/></g></g></g></svg>